simulation
nRows=73
nColumns=15
endheader
time  TH_x TH_y TH_z SC_y  SC_z  SC_x  AC_y  AC_z  AC_x  GH_y  GH_z  GH_yy  EL_x  PS_y
0.250000  0.000000  0.000000  0.000000  -17.547188  -4.359752  47.857143  50.698927  -38.362065  -24.212587  26.283122  47.194234  -17.538274  20.636469  134.686130
0.250449  0.000000  0.000000  0.000000  -31.083571  0.588356  54.285714  49.105911  -31.682637  -35.276114  22.886079  38.253799  -14.410943  20.898197  126.113524
0.250898  0.000000  0.000000  0.000000  -20.823993  19.741252  54.285714  43.859735  -30.365782  -25.380452  27.208140  34.052705  -10.932678  15.036767  123.098371
0.251346  0.000000  0.000000  0.000000  -35.545451  2.520065  54.285714  39.446278  -43.022278  -36.866209  32.146455  45.858460  -15.374789  21.473876  118.367278
0.251795  0.000000  0.000000  0.000000  -20.943928  3.015206  54.285714  39.176720  -49.086875  -31.035237  22.540377  46.579985  -11.562915  24.621396  135.072943
0.252244  0.000000  0.000000  0.000000  -16.038288  7.213271  54.285714  45.821644  -43.629167  -27.124629  15.363146  40.437890  -10.005621  14.898218  131.820960
0.252693  0.000000  0.000000  0.000000  -23.270614  -2.481586  54.285714  44.934075  -43.011590  -34.921253  19.251416  30.484777  -23.715635  25.894847  118.725009
0.253142  0.000000  0.000000  0.000000  -27.765786  7.513101  54.285714  44.376918  -37.951496  -29.444344  21.810894  46.902889  -15.414765  13.541900  126.475994
0.253591  0.000000  0.000000  0.000000  -11.526304  0.333703  54.285714  58.315679  -34.084722  -28.658974  28.324911  30.954659  -9.248295  15.588143  126.059553
0.254039  0.000000  0.000000  0.000000  -31.083571  0.588356  60.714286  46.174330  -36.436701  -40.503564  22.886079  38.253799  -14.410943  20.898197  126.113524
0.254488  0.000000  0.000000  0.000000  -17.812078  6.794068  60.714286  48.608845  -39.141072  -32.076354  29.989476  34.547842  -19.156004  18.037380  128.583355
0.254937  0.000000  0.000000  0.000000  -11.106076  13.798917  60.714286  38.617702  -39.967692  -40.245508  29.821577  48.162931  -12.391867  22.722299  123.049728
0.255386  0.000000  0.000000  0.000000  -47.577696  9.672224  60.714286  40.094560  -47.089889  -31.235294  26.658349  33.833417  -20.768499  26.928170  117.052902
0.255835  0.000000  0.000000  0.000000  -31.083571  0.588356  67.142857  42.487720  -40.933741  -46.394048  22.886079  38.253799  -14.410943  20.898197  126.113524
0.256284  0.000000  0.000000  0.000000  -12.916888  5.006594  67.142857  34.948144  -43.489852  -46.294782  21.022428  43.140145  -4.592229  17.400210  127.113053
0.256732  0.000000  0.000000  0.000000  -12.147641  1.042408  67.142857  40.352277  -47.963678  -46.830510  24.214912  41.839924  -7.918544  23.529815  127.444228
0.257181  0.000000  0.000000  0.000000  -15.964573  18.595015  67.142857  34.870714  -40.865543  -42.153007  24.925452  44.934177  -12.022468  12.051572  119.973353
0.257630  0.000000  0.000000  0.000000  -12.388204  20.020882  67.142857  37.629650  -41.905205  -38.237396  21.803588  28.732099  -23.397954  10.977875  124.832349
0.258079  0.000000  0.000000  0.000000  -50.907227  9.076690  67.142857  34.014669  -52.598688  -38.969808  28.509738  40.041281  -17.221473  27.265821  132.885167
0.258528  0.000000  0.000000  0.000000  -28.217987  -2.534513  67.142857  37.118731  -51.839744  -45.665681  18.178469  33.319032  -8.876684  27.200993  116.286188
0.258977  0.000000  0.000000  0.000000  -31.083571  0.588356  73.571429  37.900755  -45.088484  -53.109894  22.886079  38.253799  -14.410943  20.898197  126.113524
0.259425  0.000000  0.000000  0.000000  -12.869988  1.463150  73.571429  40.073260  -48.637206  -45.834777  13.806904  42.233366  -22.242579  24.509401  132.016607
0.259874  0.000000  0.000000  0.000000  -14.168910  14.001981  73.571429  29.658619  -43.818593  -57.284426  20.607179  38.995373  -22.465001  22.671964  118.706970
0.260323  0.000000  0.000000  0.000000  -31.083571  0.588356  80.000000  32.263103  -48.790361  -60.816584  22.886079  38.253799  -14.410943  20.898197  126.113524
0.260772  0.000000  0.000000  0.000000  -12.048369  9.228364  80.000000  25.283386  -56.615925  -56.403619  16.031703  44.461174  -16.225343  12.254795  130.434898
0.261221  0.000000  0.000000  0.000000  -44.257843  9.277001  80.000000  26.544193  -52.028539  -53.900031  15.330667  30.925884  -10.642384  21.409609  133.166226
0.261670  0.000000  0.000000  0.000000  -26.778901  3.989541  80.000000  25.895881  -56.484478  -53.479551  32.696766  38.350184  -7.476685  28.307780  121.633183
0.262118  0.000000  0.000000  0.000000  -32.533630  12.329976  80.000000  25.726034  -51.322944  -52.891701  28.701919  31.612033  -6.948621  20.282432  122.676199
0.262567  0.000000  0.000000  0.000000  -31.047706  0.813838  8.135182  56.533298  7.305451  -6.646707  22.413762  40.901375  -15.348760  20.412564  125.920261
0.263016  0.000000  0.000000  0.000000  -31.047706  0.813838  35.000000  55.491285  -15.098048  -21.604266  22.413762  40.901375  -15.348760  20.412564  125.920261
0.263465  0.000000  0.000000  0.000000  -18.905763  1.271055  35.000000  55.756452  -26.468562  -13.676616  26.257945  39.761509  -22.628934  26.606778  131.071357
0.263914  0.000000  0.000000  0.000000  -33.356849  7.989475  35.000000  48.589072  -28.469531  -19.001104  12.438783  33.541705  -22.010294  28.474756  132.079633
0.264363  0.000000  0.000000  0.000000  -16.135738  2.053501  35.000000  46.263365  -32.760340  -25.629117  15.750070  33.073629  -15.726513  24.286983  126.599444
0.264811  0.000000  0.000000  0.000000  -13.889559  -5.031757  35.000000  57.922200  -25.787575  -20.838426  16.612167  36.074817  -17.657625  26.214771  120.143926
0.265260  0.000000  0.000000  0.000000  -21.856212  -0.915453  35.000000  48.990351  -37.738166  -13.724101  14.695832  44.184318  -17.419539  12.073489  116.474125
0.265709  0.000000  0.000000  0.000000  -41.379822  14.864883  35.000000  50.996670  -21.908495  -13.121044  20.510772  39.259597  -6.489706  14.453141  116.702402
0.266158  0.000000  0.000000  0.000000  -13.423651  20.102895  35.000000  45.770691  -18.519910  -20.502691  18.812239  46.558493  -12.015490  19.658985  125.286375
0.266607  0.000000  0.000000  0.000000  -13.387000  -5.604702  35.000000  49.386115  -39.822237  -15.685123  23.202271  43.942013  -24.304964  14.639069  118.180213
0.267056  0.000000  0.000000  0.000000  -31.047706  0.813838  41.428571  54.308272  -20.359672  -25.483760  22.413762  40.901375  -15.348760  20.412564  125.920261
0.267504  0.000000  0.000000  0.000000  -15.422570  1.944790  41.428571  47.243927  -33.300857  -26.973632  23.161981  30.937495  -10.122275  27.409811  122.113331
0.267953  0.000000  0.000000  0.000000  -19.876603  -1.433658  41.428571  44.321178  -41.597583  -21.653707  13.970240  39.247705  -18.433498  14.939042  118.663872
0.268402  0.000000  0.000000  0.000000  -19.426400  9.804960  41.428571  50.588463  -27.499298  -19.612153  13.504333  37.004639  -15.740507  18.765201  120.413883
0.268851  0.000000  0.000000  0.000000  -38.959716  1.500921  41.428571  51.998280  -32.457909  -17.607221  17.066600  44.394212  -8.070094  24.410702  134.185763
0.269300  0.000000  0.000000  0.000000  -12.396774  16.407477  41.428571  53.501555  -14.166784  -17.498475  16.771358  50.094201  -20.190850  22.907670  119.885462
0.269749  0.000000  0.000000  0.000000  -12.778181  18.841394  41.428571  46.057479  -20.414056  -26.056177  24.933610  33.599121  -9.178440  12.636968  124.213355
0.270197  0.000000  0.000000  0.000000  -30.496706  10.162855  41.428571  45.427464  -36.372457  -18.631807  17.758917  47.082332  -17.734411  18.550965  130.129920
0.270646  0.000000  0.000000  0.000000  -28.934550  5.367717  41.428571  54.418665  -26.521497  -18.245281  26.015895  35.613724  -9.616528  28.889633  116.820852
0.271095  0.000000  0.000000  0.000000  -16.164597  -4.224575  41.428571  61.253302  -29.205878  -18.503817  31.628214  43.311389  -10.404631  17.457205  130.507773
0.271544  0.000000  0.000000  0.000000  -31.047706  0.813838  47.857143  52.687666  -25.529622  -29.635079  22.413762  40.901375  -15.348760  20.412564  125.920261
0.271993  0.000000  0.000000  0.000000  -16.072834  19.455944  47.857143  46.152357  -24.054046  -21.051277  30.191848  40.133730  -21.425216  12.078997  135.602176
0.272442  0.000000  0.000000  0.000000  -40.478080  1.353931  47.857143  44.578792  -42.852408  -28.698710  21.508379  48.648603  -20.054513  14.525631  126.788911
0.272890  0.000000  0.000000  0.000000  -12.044332  2.772604  47.857143  43.631187  -46.024710  -22.613060  13.770774  32.697319  -24.919950  16.148119  130.352667
0.273339  0.000000  0.000000  0.000000  -11.714109  18.629905  47.857143  46.301678  -26.986749  -20.525912  21.463094  41.991227  -14.380013  26.002551  117.737969
0.273788  0.000000  0.000000  0.000000  -32.980940  7.424414  47.857143  48.363874  -32.052841  -21.494758  31.672568  37.376286  -19.084323  26.463010  132.557824
0.274237  0.000000  0.000000  0.000000  -31.047706  0.813838  54.285714  50.558678  -30.572173  -34.156167  22.413762  40.901375  -15.348760  20.412564  125.920261
0.274686  0.000000  0.000000  0.000000  -13.176636  7.358702  54.285714  43.426312  -35.668644  -36.338703  15.427140  42.332073  -17.191255  26.873743  125.911752
0.275135  0.000000  0.000000  0.000000  -22.636093  3.350483  54.285714  48.575768  -36.228523  -25.878262  25.194264  42.509102  -24.698549  28.194949  125.393305
0.275583  0.000000  0.000000  0.000000  -48.433365  1.235037  54.285714  54.260617  -38.554708  -25.987348  26.829674  40.927577  -22.258118  12.171656  122.375322
0.276032  0.000000  0.000000  0.000000  -49.791528  10.950358  54.285714  43.561549  -37.532363  -26.745800  25.892830  33.114406  -12.938383  12.756137  126.754017
0.276481  0.000000  0.000000  0.000000  -22.378077  -4.720112  54.285714  42.749932  -49.362788  -32.438090  15.741744  43.895376  -20.916946  26.159223  115.993572
0.276930  0.000000  0.000000  0.000000  -31.047706  0.813838  60.714286  47.826552  -35.441591  -39.164868  22.413762  40.901375  -15.348760  20.412564  125.920261
0.277379  0.000000  0.000000  0.000000  -20.534695  4.309116  60.714286  47.375352  -40.063341  -31.711707  20.683390  33.554938  -24.519813  29.602510  135.502443
0.277828  0.000000  0.000000  0.000000  -18.197761  16.152914  60.714286  43.420852  -32.384310  -31.328360  15.506157  39.247833  -21.736425  11.993825  124.957450
0.278276  0.000000  0.000000  0.000000  -38.133662  9.245663  60.714286  38.647562  -49.495189  -29.241586  16.288490  48.613768  -11.111301  24.700147  116.546611
0.278725  0.000000  0.000000  0.000000  -27.498617  5.831055  60.714286  44.391545  -43.628013  -30.599754  25.807486  41.841476  -20.318144  21.259168  121.216105
0.279174  0.000000  0.000000  0.000000  -31.047706  0.813838  67.142857  44.369632  -40.078002  -44.802716  22.413762  40.901375  -15.348760  20.412564  125.920261
0.279623  0.000000  0.000000  0.000000  -21.753005  19.902287  67.142857  39.629560  -39.018005  -38.176119  31.439646  32.608301  -24.212430  10.512324  117.967691
0.280072  0.000000  0.000000  0.000000  -16.397569  14.779202  67.142857  35.564987  -43.117417  -38.417024  13.261886  32.228489  -15.701711  18.299536  132.707590
0.280521  0.000000  0.000000  0.000000  -12.287854  6.621748  67.142857  44.915563  -39.676403  -36.363655  30.102532  48.198047  -19.238862  19.826479  116.926612
0.280969  0.000000  0.000000  0.000000  -21.041311  1.710781  67.142857  34.922409  -49.563741  -47.889481  25.681168  33.491576  -14.058320  30.038866  130.288556
0.281418  0.000000  0.000000  0.000000  -34.965172  0.681609  67.142857  35.440749  -58.711176  -36.457279  20.540789  49.988287  -6.998894  19.859590  127.630466
0.281867  0.000000  0.000000  0.000000  -29.826995  -2.188429  67.142857  40.717102  -52.275137  -39.107890  16.333735  44.743330  -17.628344  16.470733  121.321800
0.282316  0.000000  0.000000  0.000000  -39.246550  8.386493  67.142857  37.633614  -50.161420  -37.930790  27.840047  49.804517  -9.850804  16.756868  127.024081
